<svg width="112" height="24" viewBox="0 0 112 24" fill="none" xmlns="http://www.w3.org/2000/svg">
<path fill-rule="evenodd" clip-rule="evenodd" d="M6 2C3.79086 2 2 3.79086 2 6V18C2 20.2091 3.79086 22 6 22H11.8808V15.1578H9.516V12.4913H11.8808V10.5249C11.8808 8.2427 13.3119 7 15.403 7C16.4047 7 17.265 7.07288 17.516 7.10528V9.49055L16.066 9.49129C14.929 9.49129 14.709 10.0177 14.709 10.7892V12.492H17.4207L17.0677 15.1585H14.709V22H18C20.2091 22 22 20.2091 22 18V6C22 3.79086 20.2091 2 18 2H6Z" fill="#969696"/>
<path fill-rule="evenodd" clip-rule="evenodd" d="M66 5.92417C65.2642 6.25083 64.4733 6.47083 63.6433 6.57C64.4908 6.0625 65.1417 5.25833 65.4475 4.3C64.655 4.77 63.7767 5.11167 62.8417 5.29583C62.0942 4.49833 61.0267 4 59.8467 4C57.1975 4 55.2508 6.47167 55.8492 9.0375C52.44 8.86667 49.4167 7.23333 47.3925 4.75083C46.3175 6.595 46.835 9.0075 48.6617 10.2292C47.99 10.2075 47.3567 10.0233 46.8042 9.71583C46.7592 11.6167 48.1217 13.395 50.095 13.7908C49.5175 13.9475 48.885 13.9842 48.2417 13.8608C48.7633 15.4908 50.2783 16.6767 52.075 16.71C50.35 18.0625 48.1767 18.6667 46 18.41C47.8158 19.5742 49.9733 20.2533 52.29 20.2533C59.9083 20.2533 64.2125 13.8192 63.9525 8.04833C64.7542 7.46917 65.45 6.74667 66 5.92417Z" fill="#969696"/>
<path fill-rule="evenodd" clip-rule="evenodd" d="M106.346 5.15344C103.342 4.94844 96.6533 4.94927 93.6542 5.15344C90.4067 5.3751 90.0242 7.33677 90 12.5001C90.0242 17.6543 90.4033 19.6243 93.6542 19.8468C96.6542 20.0509 103.342 20.0518 106.346 19.8468C109.593 19.6251 109.976 17.6634 110 12.5001C109.976 7.34594 109.597 5.37594 106.346 5.15344ZM97.5 15.8334V9.16677L104.167 12.4943L97.5 15.8334Z" fill="#969696"/>
</svg>
