<svg xmlns="http://www.w3.org/2000/svg" width="16" height="16" viewBox="0 0 16 16" fill="none">
  <path fill-rule="evenodd" clip-rule="evenodd" d="M7.99935 3.33325C4.66602 3.33325 1.81935 5.40659 0.666016 8.33325C1.81935 11.2599 4.66602 13.3333 7.99935 13.3333C11.3327 13.3333 14.1793 11.2599 15.3327 8.33325C14.1793 5.40659 11.3327 3.33325 7.99935 3.33325ZM7.99935 11.6666C6.15935 11.6666 4.66602 10.1733 4.66602 8.33325C4.66602 6.49325 6.15935 4.99992 7.99935 4.99992C9.83935 4.99992 11.3327 6.49325 11.3327 8.33325C11.3327 10.1733 9.83935 11.6666 7.99935 11.6666ZM7.99935 6.33325C6.89268 6.33325 5.99935 7.22659 5.99935 8.33325C5.99935 9.43992 6.89268 10.3333 7.99935 10.3333C9.10602 10.3333 9.99935 9.43992 9.99935 8.33325C9.99935 7.22659 9.10602 6.33325 7.99935 6.33325Z" fill="#969696"/>
</svg>